<svg xmlns="http://www.w3.org/2000/svg" xmlns:xlink="http://www.w3.org/1999/xlink" width="1920" zoomAndPan="magnify" viewBox="0 0 1440 809.999993" height="1080" preserveAspectRatio="xMidYMid meet" version="1.0"><defs><clipPath id="id1"><path d="M 892.875 606.007812 L 1440 606.007812 L 1440 810 L 892.875 810 Z M 892.875 606.007812 " clip-rule="nonzero"/></clipPath></defs><rect x="-144" width="1728" fill="rgb(99.21875%, 89.7995%, 89.7995%)" y="-80.999999" height="971.999992" fill-opacity="1"/><rect x="-144" width="1728" fill="rgb(100%, 100%, 100%)" y="-80.999999" height="971.999992" fill-opacity="1"/><rect x="-144" width="1728" fill="rgb(99.21875%, 89.7995%, 89.7995%)" y="-80.999999" height="971.999992" fill-opacity="1"/><g clip-path="url(#id1)"><path fill="rgb(100%, 78.42865%, 78.819275%)" d="M 1001.691406 797.183594 C 1000.765625 795.089844 999.71875 793 998.90625 790.910156 C 997.285156 787.3125 995.425781 783.246094 993.335938 779.183594 C 1043.25 765.710938 1104.777344 750.382812 1104.777344 750.382812 C 1104.777344 750.382812 1255.691406 704.398438 1353.207031 676.878906 C 1353.207031 683.964844 1353.4375 692.554688 1353.4375 703.003906 C 1266.371094 726.113281 1074.132812 777.671875 1001.691406 797.183594 Z M 1454.203125 683.265625 C 1452.578125 677.691406 1414.960938 688.371094 1398.015625 691.855469 C 1398.828125 683.03125 1399.289062 673.277344 1398.015625 664.683594 C 1417.632812 659.578125 1430.753906 656.554688 1433.421875 656.90625 C 1433.421875 656.90625 1443.640625 656.789062 1449.328125 657.136719 C 1455.011719 657.601562 1451.300781 640.53125 1441.664062 631.242188 C 1432.144531 622.070312 1432.957031 606.855469 1432.957031 606.855469 C 1432.957031 606.855469 1437.136719 603.140625 1393.140625 614.171875 C 1035.707031 703.816406 889.902344 757.933594 892.917969 761.414062 C 892.917969 761.414062 902.4375 781.15625 901.164062 788.125 C 900 795.089844 906.386719 806.003906 935.871094 795.554688 C 938.890625 794.390625 943.066406 793.230469 948.058594 791.71875 C 950.730469 796.132812 953.980469 801.359375 957.578125 807.398438 C 937.382812 811.808594 906.15625 822.492188 918.574219 844.324219 C 918.574219 844.324219 927.050781 872.773438 934.480469 864.53125 C 937.148438 861.628906 962.222656 856.054688 984.746094 851.523438 C 1012.835938 891.933594 1019.921875 873.242188 1019.921875 873.242188 C 1024.445312 869.058594 1023.515625 858.144531 1019.804688 844.90625 C 1020.035156 844.90625 1236.304688 784.753906 1354.597656 752.125 C 1358.777344 795.320312 1373.171875 784.058594 1373.171875 784.058594 C 1381.648438 782.429688 1387.449219 763.738281 1391.402344 742.023438 C 1411.480469 736.449219 1425.066406 732.847656 1428.78125 731.917969 C 1451.765625 726.113281 1464.070312 715.546875 1464.300781 705.675781 C 1464.535156 695.804688 1455.828125 688.839844 1454.203125 683.265625 " fill-opacity="1" fill-rule="nonzero"/></g><path fill="rgb(50.979614%, 18.818665%, 14.898682%)" d="M 1222.492188 715.894531 C 1219.355469 727.621094 1162.820312 764.550781 1136.238281 772.910156 C 1109.421875 781.15625 1007.964844 724.488281 1007.964844 724.488281 L 958.277344 736.046875 C 957.808594 727.335938 974.761719 701.03125 983.464844 696.269531 C 992.171875 691.511719 1018.179688 698.011719 1023.636719 701.03125 C 1029.207031 703.933594 1076.105469 710.902344 1094.449219 710.554688 C 1112.789062 710.320312 1136.589844 722.746094 1136.589844 722.746094 C 1140.183594 722.746094 1168.511719 694.757812 1168.511719 694.757812 C 1181.746094 710.785156 1222.605469 715.316406 1222.492188 715.894531 Z M 1224.816406 459.847656 C 1226.902344 457.757812 1234.214844 466.578125 1239.789062 471.109375 C 1245.363281 475.523438 1252.097656 461.242188 1256.851562 458.917969 C 1261.613281 456.59375 1266.71875 463.332031 1268.113281 468.4375 C 1269.507812 473.546875 1284.480469 467.507812 1284.480469 467.507812 C 1284.480469 467.507812 1278.679688 482.140625 1276.355469 488.992188 C 1274.035156 495.726562 1280.417969 501.882812 1285.523438 497.121094 C 1290.636719 492.363281 1304.566406 494.796875 1303.867188 508.039062 C 1303.175781 521.273438 1293.886719 532.539062 1289.242188 533.929688 C 1284.363281 535.328125 1284.132812 535.558594 1284.132812 535.558594 C 1284.601562 554.25 1308.628906 576.78125 1308.628906 576.78125 C 1308.628906 576.78125 1300.503906 595.011719 1291.328125 605.113281 C 1282.160156 615.214844 1259.515625 615.527344 1254.410156 609.722656 C 1249.296875 604.035156 1240.71875 605.113281 1240.71875 605.113281 C 1240.71875 605.113281 1244.433594 568.765625 1245.476562 564.007812 C 1246.636719 559.246094 1237.699219 562.378906 1237.699219 562.378906 C 1223.417969 562.148438 1219.011719 556.691406 1222.726562 547.050781 C 1226.4375 537.414062 1220.632812 524.410156 1220.632812 524.410156 C 1218.542969 524.25 1216.335938 523.855469 1214.523438 522.753906 C 1213.453125 522.105469 1211.867188 520.726562 1211.953125 519.328125 C 1211.976562 518.925781 1212.199219 518.558594 1212.425781 518.222656 C 1213.679688 516.363281 1214.839844 514.644531 1215.679688 512.554688 C 1216.289062 511.03125 1216.792969 509.460938 1217.238281 507.882812 C 1218.289062 504.1875 1219.035156 500.402344 1219.664062 496.617188 C 1220.90625 489.101562 1221.671875 481.5 1222.21875 473.898438 C 1222.429688 470.925781 1222.621094 467.941406 1222.726562 464.957031 C 1222.605469 462.285156 1222.726562 462.171875 1224.816406 459.847656 Z M 1034.894531 692.324219 C 1030.132812 690.351562 1045.109375 703.816406 1038.378906 700.800781 C 1014.808594 690 1025.605469 692.089844 1025.257812 691.273438 C 1028.277344 682.453125 1028.160156 645.0625 1028.160156 645.0625 C 1023.636719 644.59375 1009.816406 656.554688 1006.683594 656.789062 C 998.789062 627.644531 997.164062 588.972656 1001.691406 575.390625 C 1009.472656 552.507812 1015.277344 537.992188 1028.972656 528.359375 C 1042.789062 518.835938 1065.65625 504.785156 1078.308594 532.769531 C 1081.792969 540.664062 1076.804688 555.761719 1076.105469 564.355469 C 1075.875 567.023438 1075.40625 569.464844 1075.644531 572.019531 C 1075.957031 575.496094 1078.722656 577.644531 1081.945312 578.386719 C 1083.542969 578.753906 1085.21875 578.824219 1086.847656 578.628906 C 1088.480469 578.429688 1090.464844 577.710938 1091.660156 579.335938 C 1093.289062 581.539062 1089.917969 585.140625 1088.292969 586.535156 C 1087.597656 587.234375 1086.785156 587.695312 1085.972656 588.164062 C 1085.855469 590.136719 1087.832031 593.152344 1090.152344 596.171875 C 1090.152344 596.171875 1085.273438 601.515625 1089.917969 606.394531 C 1097 614.054688 1083.402344 632.199219 1061.667969 625.738281 C 1055.394531 624.113281 1053.753906 622.40625 1055.382812 625.769531 C 1061.300781 637.617188 1067.863281 653.421875 1069.023438 656.789062 C 1072.503906 666.308594 1083.652344 685.007812 1096.539062 680.710938 C 1107.21875 677.226562 1057.878906 701.613281 1034.894531 692.324219 " fill-opacity="1" fill-rule="nonzero"/><path fill="rgb(0%, 0%, 0%)" d="M 1091.660156 637.746094 C 1094.449219 639.835938 1090.152344 645.523438 1088.644531 647.148438 C 1086.203125 649.820312 1082.953125 651.5625 1079.820312 652.953125 C 1076.105469 654.582031 1072.113281 655.394531 1068.28125 654.816406 C 1065.960938 649.121094 1060.316406 635.773438 1055.210938 625.554688 C 1053.585938 622.183594 1055.441406 623.925781 1061.710938 625.554688 C 1066.585938 626.828125 1071.136719 627.339844 1074.96875 626.757812 C 1076.941406 633.265625 1077.496094 637.628906 1081.445312 639.136719 C 1083.417969 639.601562 1085.625 639.019531 1087.363281 638.441406 C 1087.484375 638.441406 1087.597656 638.324219 1087.832031 638.324219 C 1088.992188 637.859375 1090.5 636.816406 1091.660156 637.746094 Z M 1075.988281 511.402344 C 1073.785156 510.59375 1071.230469 510.011719 1068.910156 509.429688 C 1050.335938 505.480469 1030.132812 505.597656 1011.90625 511.054688 C 997.976562 515.238281 986.136719 523.828125 979.289062 536.71875 C 974.878906 545.078125 974.648438 545.542969 973.71875 554.832031 C 972.667969 565.402344 979.523438 577.59375 984.164062 586.421875 C 984.394531 587 984.746094 587.347656 984.746094 588.042969 C 984.746094 588.742188 984.515625 589.554688 984.277344 590.136719 C 980.066406 600.667969 968.816406 617.714844 981.152344 626.976562 C 984.230469 629.28125 988.742188 629.015625 991.441406 631.710938 C 993.039062 633.308594 993.496094 635.773438 993.167969 638.003906 C 992.519531 642.421875 989.710938 646.496094 987.597656 650.320312 C 985.277344 654.523438 983.875 658.789062 987.53125 662.710938 C 994.144531 669.679688 995.65625 672.8125 990.082031 676.414062 C 988.339844 677.578125 979.171875 685.585938 998.09375 678.621094 C 1017.019531 671.652344 1014 666.195312 1028.859375 669.210938 C 1034.34375 670.328125 1040.46875 670.386719 1045.828125 668.414062 C 1050.792969 666.585938 1057.667969 660.960938 1054.011719 655.003906 C 1052.363281 652.3125 1049.714844 650.523438 1047.457031 648.390625 C 1043.738281 644.886719 1040.023438 641.375 1036.304688 637.863281 C 1033.863281 635.558594 1031.34375 633.171875 1029.785156 630.152344 C 1028.070312 626.824219 1026.644531 623.265625 1025.375 619.746094 C 1025.375 619.746094 1021.425781 607.203125 1019.804688 602.441406 C 1019.453125 601.398438 1018.761719 601.167969 1017.945312 601.515625 C 1016.320312 602.097656 1013.417969 602.792969 1013.1875 602.910156 C 1008.195312 603.023438 1003.550781 598.613281 1003.089844 593.851562 C 1007.964844 593.621094 1010.863281 589.554688 1012.605469 585.371094 C 1016.203125 576.78125 1029.320312 575.96875 1033.152344 567.375 C 1036.984375 558.664062 1031.761719 541.945312 1039.421875 536.601562 C 1047.082031 531.027344 1058.808594 536.601562 1067.398438 532.65625 C 1079.46875 527.082031 1076.304688 553.878906 1076.421875 561.660156 C 1081.648438 555.503906 1086.089844 549.261719 1088.992188 541.714844 C 1091.894531 534.164062 1091.660156 524.875 1086.671875 518.488281 C 1084.113281 515.117188 1080.167969 512.914062 1075.988281 511.402344 Z M 1209.257812 470.878906 C 1209.257812 470.878906 1220.753906 472.152344 1224.464844 463.675781 C 1228.179688 455.085938 1227.832031 466.347656 1234.683594 470.992188 C 1241.648438 475.753906 1248.144531 473.894531 1254.183594 465.765625 C 1260.222656 457.757812 1262.195312 466 1264.050781 470.878906 C 1266.027344 476.105469 1276.582031 479.027344 1278.679688 475.988281 C 1277.980469 476.566406 1274.734375 494.914062 1274.613281 497.351562 C 1274.613281 501.070312 1275.542969 503.972656 1277.515625 506.992188 C 1277.636719 507.222656 1277.980469 507.570312 1278.214844 507.800781 C 1280.4375 509.179688 1282.222656 504.882812 1282.878906 503.457031 C 1284.152344 500.671875 1285.792969 497.933594 1288.613281 496.488281 C 1293.339844 494.078125 1298.480469 496.515625 1301.921875 499.960938 C 1301.332031 499.375 1310.089844 468.996094 1312.433594 463.140625 C 1316.101562 453.976562 1315.625 445.824219 1311.816406 436.796875 C 1309.152344 430.480469 1304.148438 424.867188 1297.597656 422.851562 C 1293.765625 421.671875 1289.460938 421.972656 1285.820312 423.644531 C 1284.035156 424.46875 1282.390625 425.628906 1281.097656 427.117188 C 1280.109375 428.25 1278.6875 431.953125 1276.820312 431.511719 C 1276.007812 431.398438 1275.425781 430.699219 1274.847656 430 C 1270.433594 424.3125 1268.347656 417.808594 1262.773438 412.699219 C 1259.871094 410.027344 1256.160156 407.824219 1252.441406 408.867188 C 1250.699219 409.335938 1249.308594 410.496094 1247.914062 411.769531 C 1245.242188 414.441406 1243.503906 417.695312 1242.574219 421.179688 C 1242.339844 422.453125 1241.992188 423.613281 1241.179688 424.542969 C 1239.441406 426.753906 1237.117188 424.542969 1236.074219 423.035156 C 1234.332031 420.710938 1232.359375 418.625 1230.152344 416.648438 C 1228.0625 414.90625 1225.742188 413.164062 1223.074219 412.46875 C 1220.402344 411.769531 1217.382812 412.238281 1215.292969 413.980469 C 1213.550781 415.484375 1212.625 417.808594 1212.277344 420.25 C 1211.578125 423.382812 1211.347656 426.636719 1211.464844 429.886719 C 1211.578125 432.09375 1212.046875 435.574219 1210.1875 437.316406 C 1208.214844 438.945312 1204.265625 438.246094 1201.941406 438.597656 C 1198.460938 439.058594 1195.558594 440.800781 1194.746094 444.285156 C 1192.773438 451.601562 1192.074219 471.574219 1209.257812 470.878906 Z M 1057.878906 569.234375 C 1056.140625 570.046875 1054.28125 570.277344 1052.425781 570.394531 C 1052.308594 570.394531 1052.308594 570.394531 1052.308594 570.394531 C 1052.191406 570.394531 1052.191406 570.394531 1052.191406 570.394531 C 1051.148438 570.507812 1051.496094 569.464844 1052.308594 569.347656 C 1054.046875 569.117188 1055.671875 568.1875 1056.949219 567.023438 C 1057.648438 565.519531 1058.34375 563.777344 1060.433594 563.660156 C 1061.132812 563.660156 1061.710938 563.890625 1062.292969 564.238281 C 1062.875 564.589844 1063.335938 565.167969 1064.035156 565.863281 C 1065.890625 568.304688 1067.167969 572.136719 1064.148438 574.109375 C 1062.988281 574.808594 1061.59375 575.152344 1060.550781 574.226562 C 1058.808594 573.179688 1058.230469 570.976562 1057.878906 569.234375 Z M 1261.035156 488.0625 C 1260.453125 488.878906 1258.941406 488.640625 1258.59375 487.949219 C 1256.851562 485.160156 1254.300781 483.183594 1251.28125 481.910156 C 1249.195312 480.980469 1246.40625 480.632812 1244.664062 479.238281 C 1244.199219 479.007812 1244.082031 478.773438 1244.199219 478.425781 C 1244.433594 477.496094 1245.128906 476.449219 1245.59375 475.636719 C 1246.171875 474.707031 1247.335938 474.363281 1247.796875 474.363281 C 1251.628906 474.59375 1255.808594 477.847656 1258.710938 480.167969 C 1261.035156 482.140625 1263.46875 485.160156 1261.035156 488.0625 Z M 1255.34375 524.410156 C 1255.460938 528.242188 1257.082031 531.605469 1259.984375 534.046875 C 1260.683594 534.628906 1262.886719 534.046875 1261.726562 533.117188 C 1259.175781 530.914062 1257.664062 527.777344 1257.664062 524.410156 C 1257.664062 523.597656 1255.34375 523.367188 1255.34375 524.410156 Z M 1229.691406 538.113281 C 1234.101562 540.550781 1239.671875 540.085938 1244.433594 538.574219 C 1248.957031 537.183594 1256.273438 534.277344 1258.59375 529.867188 C 1259.0625 528.941406 1256.851562 528.359375 1256.390625 529.285156 C 1252.675781 536.253906 1237.699219 540.664062 1231.082031 537.070312 C 1230.039062 536.371094 1228.296875 537.183594 1229.691406 538.113281 Z M 1246.871094 501.300781 C 1245.710938 502.695312 1243.96875 502.695312 1242.460938 502.113281 C 1238.398438 500.722656 1238.859375 495.726562 1240.367188 492.242188 C 1240.832031 491.3125 1241.296875 490.503906 1241.878906 489.921875 C 1242.460938 489.339844 1243.152344 488.761719 1243.96875 488.640625 C 1246.40625 488.0625 1248.03125 490.039062 1249.074219 491.546875 C 1250.816406 492.707031 1252.90625 493.171875 1255.109375 493.054688 C 1256.039062 492.941406 1256.851562 494.21875 1255.578125 494.21875 C 1255.460938 494.21875 1255.460938 494.21875 1255.34375 494.21875 C 1255.230469 494.335938 1255.230469 494.335938 1255.109375 494.335938 C 1252.90625 494.566406 1250.355469 494.796875 1248.144531 494.449219 C 1248.378906 496.65625 1248.378906 499.441406 1246.871094 501.300781 Z M 1045.109375 567.023438 C 1045.691406 561.335938 1049.984375 557.851562 1054.628906 555.179688 C 1056.371094 554.25 1054.046875 553.789062 1052.769531 554.601562 C 1047.664062 557.503906 1042.558594 560.988281 1041.859375 567.261719 C 1041.859375 568.535156 1044.878906 568.1875 1045.109375 567.023438 " fill-opacity="1" fill-rule="nonzero"/><path fill="rgb(91.758728%, 31.759644%, 60.389709%)" d="M 1121.496094 668.050781 C 1108.03125 666.65625 1094.449219 671.421875 1082.027344 676.644531 C 1082.027344 676.644531 1052.539062 690.113281 1027.117188 681.171875 C 1022.707031 683.265625 1002.96875 694.066406 1001.230469 695.109375 C 1011.097656 696.738281 1020.613281 699.402344 1023.75 701.03125 C 1026.417969 702.425781 1039.074219 704.976562 1052.425781 706.488281 C 1083.300781 697.316406 1112.554688 688.722656 1155.394531 676.878906 C 1153.535156 677.457031 1139.253906 669.910156 1121.496094 668.050781 Z M 1232.90625 711.886719 C 1244.515625 694.929688 1262.886719 665.382812 1266.488281 662.59375 C 1271.363281 658.878906 1372.085938 619.472656 1372.085938 619.472656 L 1369.226562 608.367188 C 1369.226562 608.367188 1364.8125 591.296875 1352.742188 580.035156 C 1340.667969 568.652344 1325.460938 572.949219 1315.945312 574.808594 C 1308.742188 576.199219 1308.398438 576.78125 1308.398438 576.78125 C 1308.398438 576.78125 1305.609375 579.796875 1294.46875 598.144531 C 1283.4375 616.496094 1258.363281 609.0625 1248.144531 605.230469 C 1236.304688 600.699219 1225.046875 606.160156 1215.757812 614.171875 C 1209.835938 619.28125 1204.613281 625.554688 1200.4375 630.890625 C 1189.410156 645.40625 1180.933594 661.78125 1169.09375 675.714844 C 1163.054688 682.914062 1156.667969 682.453125 1173.269531 704.746094 C 1189.871094 727.042969 1218.195312 728.550781 1224.117188 723.328125 C 1225.277344 722.398438 1227.25 719.726562 1229.804688 716.128906 L 1229.804688 735.988281 C 1277.636719 723.214844 1322.441406 711.363281 1353.785156 703.125 C 1353.554688 692.554688 1353.207031 683.964844 1353.207031 676.878906 C 1315.757812 685.625 1273.535156 699.808594 1232.90625 711.886719 Z M 1075.875 757.8125 L 1106.40625 769.195312 C 1063.683594 780.6875 1026.070312 790.796875 1001.808594 797.296875 C 1000.847656 796.230469 995.425781 783.359375 993.453125 779.183594 C 1010.632812 774.652344 1028.972656 769.773438 1045.921875 765.480469 Z M 1368.296875 648.429688 C 1371.898438 646.6875 1374.566406 643.902344 1378.511719 643.902344 C 1381.996094 643.902344 1385.597656 645.0625 1388.148438 648.078125 C 1393.835938 654.351562 1390.003906 662.824219 1383.96875 664.683594 C 1382.34375 665.148438 1381.066406 662.824219 1383.273438 662.011719 C 1386.988281 660.851562 1389.542969 655.859375 1386.871094 651.214844 C 1385.476562 648.660156 1383.273438 647.496094 1381.183594 646.917969 C 1376.652344 645.644531 1373.871094 648.890625 1369.925781 650.75 C 1368.527344 651.5625 1366.441406 649.589844 1368.296875 648.429688 Z M 1364.464844 653.769531 C 1362.722656 660.269531 1370.503906 661.082031 1373.519531 660.851562 C 1375.03125 660.738281 1376.308594 660.503906 1377.933594 659.691406 C 1378.511719 659.339844 1379.09375 658.996094 1379.675781 658.648438 C 1381.183594 657.136719 1381.183594 655.976562 1379.675781 654.816406 C 1378.394531 655.277344 1376.074219 653.304688 1378.164062 652.375 C 1380.253906 651.5625 1383.15625 651.792969 1383.855469 655.164062 C 1384.78125 659.808594 1380.484375 661.664062 1378.050781 662.59375 C 1373.40625 664.105469 1358.660156 664.453125 1361.679688 652.839844 C 1361.796875 651.332031 1364.933594 651.792969 1364.464844 653.769531 Z M 1381.996094 726.929688 C 1378.394531 728.667969 1375.730469 731.453125 1371.777344 731.453125 C 1368.296875 731.453125 1364.699219 730.292969 1362.144531 727.273438 C 1356.457031 721.003906 1360.289062 712.527344 1366.324219 710.671875 C 1367.949219 710.203125 1369.226562 712.527344 1367.023438 713.339844 C 1363.304688 714.5 1360.75 719.492188 1363.421875 724.136719 C 1364.8125 726.691406 1367.023438 727.851562 1369.109375 728.433594 C 1373.636719 729.714844 1376.421875 726.460938 1380.371094 724.605469 C 1381.878906 723.90625 1383.96875 725.878906 1381.996094 726.929688 Z M 1385.941406 721.703125 C 1387.683594 715.199219 1379.90625 714.386719 1376.890625 714.617188 C 1375.378906 714.734375 1374.101562 714.964844 1372.476562 715.777344 C 1371.898438 716.128906 1371.316406 716.476562 1370.734375 716.820312 C 1369.226562 718.332031 1369.226562 719.492188 1370.734375 720.65625 C 1372.011719 720.191406 1374.332031 722.164062 1372.246094 723.09375 C 1370.15625 723.90625 1367.253906 723.675781 1366.554688 720.304688 C 1365.625 715.660156 1369.925781 713.804688 1372.359375 712.875 C 1377.003906 711.363281 1391.746094 711.015625 1388.730469 722.628906 C 1388.613281 724.136719 1385.476562 723.558594 1385.941406 721.703125 Z M 969.652344 760.023438 C 971.859375 760.136719 970.695312 762.925781 969.1875 762.691406 C 964.78125 762.691406 960.949219 760.835938 957.347656 763.851562 C 955.722656 765.25 954.097656 767.222656 953.863281 770.125 C 953.402344 775.464844 957.695312 779.066406 961.640625 778.484375 C 963.964844 778.367188 963.730469 781.039062 962.109375 781.15625 C 955.835938 781.851562 948.871094 775.699219 951.429688 767.683594 C 952.589844 763.851562 955.375 761.296875 958.507812 759.90625 C 962.109375 758.394531 965.703125 759.90625 969.652344 760.023438 Z M 975.339844 763.269531 C 974.179688 761.648438 976.734375 760.023438 977.664062 761.296875 C 985.207031 770.585938 971.625 776.394531 966.753906 776.859375 C 964.199219 777.09375 959.320312 777.09375 958.394531 772.445312 C 957.695312 769.078125 960.136719 767.800781 962.457031 767.570312 C 964.660156 767.570312 963.5 770.355469 961.992188 770.355469 C 961.0625 771.980469 961.640625 773.140625 963.617188 773.839844 C 964.3125 773.957031 964.894531 773.957031 965.589844 774.070312 C 967.332031 774.1875 968.605469 773.839844 970.003906 773.257812 C 972.789062 772.445312 979.523438 768.496094 975.339844 763.269531 Z M 989.15625 837.242188 C 986.949219 837.125 988.109375 834.339844 989.621094 834.570312 C 994.03125 834.570312 997.863281 836.425781 1001.460938 833.410156 C 1003.089844 832.019531 1004.710938 830.039062 1004.941406 827.136719 C 1005.410156 821.796875 1001.109375 818.195312 997.164062 818.777344 C 994.84375 818.894531 995.074219 816.222656 996.703125 816.105469 C 1002.96875 815.410156 1009.9375 821.566406 1007.382812 829.578125 C 1006.222656 833.410156 1003.433594 835.964844 1000.300781 837.355469 C 996.816406 838.75 993.222656 837.355469 989.15625 837.242188 Z M 983.464844 833.992188 C 984.628906 835.617188 982.074219 837.242188 981.144531 835.964844 C 973.597656 826.675781 987.179688 820.867188 992.058594 820.40625 C 994.613281 820.171875 999.488281 820.171875 1000.417969 824.816406 C 1001.109375 828.183594 998.675781 829.460938 996.355469 829.695312 C 994.144531 829.695312 995.308594 826.90625 996.816406 826.90625 C 997.746094 825.28125 997.164062 824.121094 995.195312 823.421875 C 994.496094 823.308594 993.914062 823.308594 993.222656 823.191406 C 991.480469 823.074219 990.199219 823.421875 988.808594 824.003906 C 986.019531 824.816406 979.289062 828.765625 983.464844 833.992188 " fill-opacity="1" fill-rule="nonzero"/><path fill="rgb(80.389404%, 3.138733%, 6.269836%)" d="M 1091.078125 598.496094 C 1091.078125 598.726562 1091.078125 598.496094 1091.078125 598.496094 Z M 1091.078125 598.496094 C 1090.847656 600.585938 1089.574219 602.792969 1087.832031 603.839844 C 1086.320312 604.765625 1084.582031 605.113281 1082.722656 605 C 1079.355469 605 1075.523438 603.722656 1072.972656 601.398438 C 1072.621094 601.050781 1072.390625 600.699219 1072.273438 600.46875 C 1071.460938 601.628906 1069.371094 601.167969 1070.417969 600.699219 C 1071.578125 600.238281 1072.042969 598.144531 1072.042969 598.144531 C 1072.621094 597.566406 1072.972656 598.144531 1072.503906 599.773438 C 1072.855469 599.886719 1074.828125 600.238281 1077.382812 599.65625 C 1080.167969 599.074219 1082.140625 595.011719 1084.113281 594.429688 C 1086.203125 593.96875 1086.433594 594.894531 1086.433594 594.894531 C 1086.785156 593.96875 1087.597656 593.152344 1088.757812 593.386719 C 1089.574219 593.5 1090.5 593.96875 1090.386719 595.011719 C 1090.265625 596.289062 1091.195312 597.335938 1091.078125 598.496094 Z M 1171.066406 464.605469 C 1167.351562 480.167969 1163.054688 495.609375 1159.109375 511.171875 C 1158.179688 514.769531 1158.066406 520.8125 1155.972656 523.597656 C 1153.535156 526.847656 1152.144531 526.269531 1148.199219 523.828125 C 1144.828125 521.625 1142.394531 517.910156 1138.5625 515.699219 C 1122.660156 506.296875 1102.804688 508.730469 1086.671875 500.253906 C 1074.132812 493.636719 1067.28125 479.007812 1073.085938 465.304688 C 1082.953125 442.3125 1109.652344 453.460938 1124.632812 462.863281 C 1124.632812 463.09375 1124.746094 463.445312 1124.863281 463.792969 C 1125.792969 466.695312 1133.105469 463.792969 1131.945312 460.773438 C 1126.140625 443.589844 1138.675781 413.164062 1161.199219 422.6875 C 1177.683594 429.65625 1174.316406 450.558594 1171.066406 464.605469 Z M 1168.742188 418.507812 C 1145.175781 405.035156 1122.890625 431.511719 1123.121094 454.273438 C 1102.226562 443.933594 1072.742188 441.269531 1064.496094 469.25 C 1055.441406 499.558594 1088.757812 508.617188 1110.46875 512.914062 C 1117.433594 514.1875 1124.511719 515.699219 1130.898438 518.953125 C 1137.515625 522.316406 1141.464844 530.214844 1148.078125 532.769531 C 1157.828125 536.71875 1161.660156 528.359375 1163.75 520.460938 C 1169.207031 499.441406 1175.589844 478.425781 1179.886719 457.175781 C 1182.558594 443.933594 1182.441406 426.285156 1168.742188 418.507812 Z M 1143.4375 566.910156 C 1143.316406 571.667969 1143.667969 577.824219 1139.953125 581.65625 C 1137.167969 584.679688 1133.449219 585.140625 1129.042969 582.820312 C 1121.960938 579.21875 1111.394531 573.992188 1108.261719 568.074219 C 1106.40625 564.820312 1107.332031 561.105469 1111.511719 559.363281 C 1116.273438 557.273438 1119.871094 559.59375 1123.46875 561.917969 C 1122.539062 558.78125 1122.660156 555.53125 1125.324219 552.976562 C 1127.644531 550.765625 1131.710938 548.792969 1135.773438 550.765625 C 1142.855469 554.019531 1143.554688 562.035156 1143.4375 566.910156 Z M 1212.738281 580.035156 C 1210.304688 568.765625 1195.675781 569.234375 1188.59375 575.734375 C 1185.925781 566.210938 1178.378906 556.230469 1167.351562 561.453125 C 1155.164062 567.140625 1161.777344 580.148438 1166.535156 588.277344 C 1168.046875 590.828125 1169.554688 593.5 1170.367188 596.40625 C 1171.179688 599.425781 1169.785156 602.910156 1170.835938 605.695312 C 1172.339844 609.875 1176.171875 608.714844 1179.191406 607.085938 C 1187.316406 602.910156 1195.792969 598.957031 1203.683594 594.3125 C 1208.5625 591.527344 1214.132812 586.535156 1212.738281 580.035156 " fill-opacity="1" fill-rule="nonzero"/></svg>