<svg xmlns="http://www.w3.org/2000/svg" xmlns:xlink="http://www.w3.org/1999/xlink" width="1920" zoomAndPan="magnify" viewBox="0 0 1440 809.999993" height="1080" preserveAspectRatio="xMidYMid meet" version="1.0"><defs><clipPath id="id1"><path d="M 1175 469 L 1310 469 L 1310 604.5 L 1175 604.5 Z M 1175 469 " clip-rule="nonzero"/></clipPath><clipPath id="id2"><path d="M 1290 647 L 1412.34375 647 L 1412.34375 757 L 1290 757 Z M 1290 647 " clip-rule="nonzero"/></clipPath><clipPath id="id3"><path d="M 1177.59375 606.800781 L 1300 606.800781 L 1300 717 L 1177.59375 717 Z M 1177.59375 606.800781 " clip-rule="nonzero"/></clipPath></defs><rect x="-144" width="1728" fill="rgb(100%, 100%, 100%)" y="-80.999999" height="971.999992" fill-opacity="1"/><rect x="-144" width="1728" fill="rgb(100%, 100%, 100%)" y="-80.999999" height="971.999992" fill-opacity="1"/><rect x="-144" width="1728" fill="rgb(100%, 100%, 100%)" y="-80.999999" height="971.999992" fill-opacity="1"/><rect x="-144" width="1728" fill="rgb(100%, 100%, 100%)" y="-80.999999" height="971.999992" fill-opacity="1"/><g clip-path="url(#id1)"><path fill="rgb(98.81897%, 61.569214%, 57.249451%)" d="M 1224.265625 472.628906 C 1230.984375 475.347656 1241.035156 482.230469 1245.257812 490.21875 C 1249.53125 482.339844 1256.585938 476.457031 1266.136719 474.40625 C 1280.742188 471.242188 1294.625 478.84375 1302.734375 490.828125 C 1320.117188 516.578125 1299.011719 548.484375 1279.964844 566.351562 C 1274.246094 571.734375 1268.414062 576.949219 1263.195312 582.832031 C 1260.75 585.550781 1258.53125 588.378906 1256.640625 591.597656 C 1254.863281 594.707031 1253.699219 598.148438 1251.808594 601.085938 C 1250.367188 603.363281 1248.089844 604.195312 1245.921875 603.863281 C 1244.089844 604.417969 1242.035156 604.085938 1240.59375 602.199219 C 1229.929688 588.546875 1217.15625 577.339844 1205.050781 565.128906 C 1193.5 553.476562 1182.613281 540.269531 1177.617188 524.402344 C 1173.007812 509.75 1174.785156 490.609375 1185.945312 479.175781 C 1195.832031 469.1875 1211.601562 467.523438 1224.265625 472.628906 Z M 1219.265625 558.695312 C 1227.484375 566.40625 1237.148438 574.007812 1243.867188 583.386719 C 1247.644531 577.117188 1253.421875 571.402344 1257.308594 567.515625 C 1265.636719 559.136719 1275.191406 552.144531 1282.632812 542.878906 C 1289.796875 533.890625 1296.070312 522.292969 1295.625 510.472656 C 1295.183594 499.429688 1286.351562 488.332031 1275.355469 486.167969 C 1264.027344 483.894531 1252.03125 490.941406 1246.757812 500.875 C 1246.476562 501.816406 1246.035156 502.816406 1245.480469 503.757812 C 1244.535156 505.3125 1242.257812 504.589844 1242.148438 502.871094 C 1242.148438 502.761719 1242.148438 502.648438 1242.089844 502.539062 C 1241.589844 501.984375 1241.3125 501.207031 1241.535156 500.375 C 1241.589844 500.207031 1241.589844 500.097656 1241.648438 499.929688 C 1239.09375 491.273438 1227.652344 483.894531 1219.988281 481.671875 C 1209.769531 478.734375 1196.941406 480.785156 1191.390625 490.773438 C 1177.117188 516.355469 1202.105469 542.601562 1219.265625 558.695312 Z M 1219.265625 558.695312 " fill-opacity="1" fill-rule="nonzero"/></g><path fill="rgb(98.81897%, 61.569214%, 57.249451%)" d="M 1041.890625 361.761719 C 1049 343.894531 1066.714844 326.523438 1087.375 328.464844 C 1097.371094 329.410156 1107.144531 334.902344 1114.363281 341.785156 C 1116.640625 343.949219 1118.972656 346.667969 1120.695312 349.664062 C 1125.691406 339.007812 1137.242188 331.683594 1148.40625 328.410156 C 1163.289062 324.082031 1178.671875 328.078125 1188.335938 340.339844 C 1209.328125 366.921875 1196.054688 405.152344 1177.949219 429.511719 C 1171.617188 438.058594 1163.398438 444.773438 1156.070312 452.375 C 1152.183594 456.371094 1148.570312 460.53125 1146.351562 465.75 C 1144.242188 470.742188 1143.40625 476.125 1140.351562 480.730469 C 1138.078125 484.226562 1132.800781 484.058594 1130.746094 481.007812 C 1129.523438 480.839844 1128.300781 480.34375 1127.246094 479.289062 C 1121.472656 473.628906 1115.972656 467.96875 1109.585938 462.972656 C 1102.8125 457.648438 1095.703125 452.707031 1088.761719 447.601562 C 1074.324219 437.117188 1059.773438 426.074219 1049.277344 411.480469 C 1038.835938 396.886719 1035.117188 378.683594 1041.890625 361.761719 Z M 1099.203125 438.667969 C 1106.476562 443.941406 1113.753906 449.15625 1120.695312 454.761719 C 1124.582031 457.925781 1128.691406 461.253906 1132.191406 464.972656 C 1133.46875 460.976562 1135.1875 457.203125 1137.355469 453.929688 C 1142.1875 446.546875 1149.070312 440.613281 1155.515625 434.675781 C 1166.789062 424.296875 1175.007812 412.753906 1181.335938 398.773438 C 1187 386.121094 1190.445312 372.746094 1186.558594 359.097656 C 1183.226562 347.386719 1174.171875 336.289062 1161.289062 335.125 C 1147.015625 333.792969 1129.691406 342.339844 1123.136719 355.546875 C 1124.027344 358.984375 1123.804688 362.539062 1121.804688 365.8125 C 1121.136719 366.976562 1119.304688 366.476562 1119.304688 365.144531 C 1119.304688 363.703125 1119.082031 362.261719 1118.75 360.871094 C 1118.304688 360.59375 1118.027344 360.152344 1118.085938 359.484375 C 1118.085938 359.261719 1118.140625 359.042969 1118.140625 358.820312 C 1113.753906 346.335938 1097.648438 337.457031 1085.152344 338.121094 C 1067.824219 339.066406 1054.332031 355.933594 1050.945312 371.859375 C 1044.5 402.15625 1078.488281 423.6875 1099.203125 438.667969 Z M 1099.203125 438.667969 " fill-opacity="1" fill-rule="nonzero"/><path fill="rgb(98.81897%, 61.569214%, 57.249451%)" d="M 1071.046875 357.15625 C 1073.824219 354.546875 1078.765625 357.933594 1076.488281 361.371094 C 1071.15625 369.417969 1071.101562 378.019531 1075.378906 386.5625 C 1079.378906 394.5 1085.820312 400.824219 1089.816406 408.703125 C 1092.207031 413.367188 1086.707031 417.304688 1082.820312 414.144531 C 1074.546875 407.316406 1067.824219 397.050781 1064.160156 386.953125 C 1060.164062 376.019531 1062.550781 365.089844 1071.046875 357.15625 Z M 1071.046875 357.15625 " fill-opacity="1" fill-rule="nonzero"/><path fill="rgb(98.81897%, 61.569214%, 57.249451%)" d="M 1097.257812 420.746094 C 1097.425781 420.636719 1097.59375 420.46875 1097.757812 420.359375 C 1098.425781 419.859375 1099.148438 419.523438 1099.925781 419.359375 C 1101.589844 418.914062 1103.367188 419.359375 1104.367188 420.96875 C 1104.8125 421.632812 1105.089844 422.410156 1105.089844 423.355469 C 1105.144531 424.296875 1104.867188 425.074219 1104.367188 425.738281 C 1103.367188 427.347656 1101.535156 427.792969 1099.867188 427.347656 C 1099.148438 427.183594 1098.425781 426.90625 1097.757812 426.351562 C 1097.59375 426.238281 1097.425781 426.074219 1097.257812 425.960938 C 1095.757812 424.851562 1095.757812 421.910156 1097.257812 420.746094 Z M 1097.257812 420.746094 " fill-opacity="1" fill-rule="nonzero"/><path fill="rgb(98.81897%, 61.569214%, 57.249451%)" d="M 1208.605469 492.605469 C 1209.882812 492.828125 1210.046875 494.492188 1209.328125 495.269531 C 1205.996094 498.820312 1204.160156 501.207031 1204.273438 506.367188 C 1204.382812 510.582031 1205.882812 515.355469 1209.105469 518.1875 C 1211.824219 520.628906 1208.214844 525.457031 1205.160156 523.289062 C 1199.332031 519.183594 1196.886719 511.859375 1197.554688 504.867188 C 1198.109375 499.320312 1201.828125 491.496094 1208.605469 492.605469 Z M 1208.605469 492.605469 " fill-opacity="1" fill-rule="nonzero"/><path fill="rgb(98.81897%, 61.569214%, 57.249451%)" d="M 1216.488281 532.113281 C 1216.933594 532.113281 1217.433594 532.058594 1217.878906 532.058594 C 1219.820312 532.003906 1221.65625 533.777344 1221.542969 535.722656 C 1221.433594 537.664062 1219.933594 539.492188 1217.878906 539.382812 C 1217.433594 539.382812 1216.933594 539.328125 1216.488281 539.328125 C 1215.546875 539.273438 1214.601562 538.9375 1213.9375 538.273438 C 1213.324219 537.664062 1212.824219 536.609375 1212.878906 535.722656 C 1212.9375 533.722656 1214.433594 532.167969 1216.488281 532.113281 Z M 1216.488281 532.113281 " fill-opacity="1" fill-rule="nonzero"/><g clip-path="url(#id2)"><path fill="rgb(86.669922%, 24.308777%, 27.449036%)" d="M 1384.011719 647.273438 C 1363.777344 647.273438 1357.738281 661.726562 1351.632812 667.511719 C 1345.53125 661.726562 1339.492188 647.273438 1319.253906 647.273438 C 1300.472656 647.273438 1290.921875 668.964844 1290.921875 687.75 C 1290.921875 720.128906 1351.632812 756.554688 1351.632812 756.554688 C 1351.632812 756.554688 1412.34375 720.128906 1412.34375 687.75 C 1412.34375 668.964844 1402.796875 647.273438 1384.011719 647.273438 " fill-opacity="1" fill-rule="nonzero"/></g><g clip-path="url(#id3)"><path fill="rgb(98.81897%, 61.569214%, 57.249451%)" d="M 1270.683594 606.800781 C 1250.449219 606.800781 1244.410156 621.25 1238.304688 627.039062 C 1232.203125 621.25 1226.164062 606.800781 1205.925781 606.800781 C 1187.144531 606.800781 1177.59375 628.492188 1177.59375 647.273438 C 1177.59375 679.652344 1238.304688 716.082031 1238.304688 716.082031 C 1238.304688 716.082031 1299.015625 679.652344 1299.015625 647.273438 C 1299.015625 628.492188 1289.46875 606.800781 1270.683594 606.800781 " fill-opacity="1" fill-rule="nonzero"/></g><path fill="rgb(98.81897%, 61.569214%, 57.249451%)" d="M 1327.347656 732.269531 C 1307.113281 732.269531 1301.074219 746.71875 1294.96875 752.507812 C 1288.867188 746.71875 1282.828125 732.269531 1262.589844 732.269531 C 1243.808594 732.269531 1234.257812 753.960938 1234.257812 772.746094 C 1234.257812 805.125 1294.96875 841.550781 1294.96875 841.550781 C 1294.96875 841.550781 1355.679688 805.125 1355.679688 772.746094 C 1355.679688 753.960938 1346.132812 732.269531 1327.347656 732.269531 " fill-opacity="1" fill-rule="nonzero"/><path fill="rgb(100%, 100%, 100%)" d="M 1244.597656 695.164062 L 1240.109375 688.429688 C 1240.457031 688.191406 1274.734375 665.046875 1274.734375 643.226562 L 1282.828125 643.226562 C 1282.828125 669.378906 1246.164062 694.121094 1244.597656 695.164062 " fill-opacity="1" fill-rule="nonzero"/><path fill="rgb(100%, 100%, 100%)" d="M 1282.828125 631.085938 L 1274.734375 631.085938 C 1274.734375 627.828125 1272.503906 627.085938 1270.636719 627.039062 L 1270.683594 618.941406 C 1275.570312 618.941406 1282.828125 622.167969 1282.828125 631.085938 " fill-opacity="1" fill-rule="nonzero"/><path fill="rgb(100%, 100%, 100%)" d="M 1357.925781 735.636719 L 1353.4375 728.902344 C 1353.785156 728.664062 1388.058594 705.519531 1388.058594 683.699219 L 1396.15625 683.699219 C 1396.15625 709.851562 1359.492188 734.59375 1357.925781 735.636719 " fill-opacity="1" fill-rule="nonzero"/><path fill="rgb(100%, 100%, 100%)" d="M 1396.15625 671.558594 L 1388.058594 671.558594 C 1388.058594 668.300781 1385.832031 667.558594 1383.964844 667.511719 L 1384.011719 659.417969 C 1388.898438 659.417969 1396.15625 662.640625 1396.15625 671.558594 " fill-opacity="1" fill-rule="nonzero"/><path fill="rgb(100%, 100%, 100%)" d="M 1301.261719 820.632812 L 1296.773438 813.898438 C 1297.121094 813.660156 1331.398438 790.515625 1331.398438 768.695312 L 1339.492188 768.695312 C 1339.492188 794.847656 1302.828125 819.589844 1301.261719 820.632812 " fill-opacity="1" fill-rule="nonzero"/><path fill="rgb(100%, 100%, 100%)" d="M 1339.492188 756.554688 L 1331.398438 756.554688 C 1331.398438 753.296875 1329.167969 752.554688 1327.300781 752.507812 L 1327.347656 744.414062 C 1332.234375 744.414062 1339.492188 747.636719 1339.492188 756.554688 " fill-opacity="1" fill-rule="nonzero"/></svg>