<?xml version="1.0" standalone="no"?>
<!DOCTYPE svg PUBLIC "-//W3C//DTD SVG 20010904//EN"
 "http://www.w3.org/TR/2001/REC-SVG-20010904/DTD/svg10.dtd">
<svg version="1.0" xmlns="http://www.w3.org/2000/svg"
 width="700.000000pt" height="700.000000pt" viewBox="0 0 700.000000 700.000000"
 preserveAspectRatio="xMidYMid meet">
<metadata>
Created by potrace 1.14, written by Peter Selinger 2001-2017
</metadata>
<g transform="translate(0.000000,700.000000) scale(0.100000,-0.100000)"
fill="#000000" stroke="none">
<path d="M3279 5296 c-2 -2 -33 -7 -69 -11 -486 -49 -1068 -286 -1570 -639
-78 -54 -298 -222 -310 -236 -3 -3 -46 -40 -95 -82 -119 -99 -328 -307 -438
-434 -48 -56 -87 -104 -87 -107 0 -2 186 -4 414 -4 l413 0 44 41 c493 461
1067 779 1574 872 209 38 473 40 665 4 95 -18 101 -19 179 -39 459 -119 978
-426 1425 -842 l39 -37 414 1 c227 0 413 2 413 5 0 12 -189 221 -297 329 -471
468 -1046 839 -1593 1028 -99 34 -290 88 -355 100 -250 46 -263 47 -511 51
-138 2 -253 2 -255 0z"/>
<path d="M3289 4560 c-284 -59 -511 -209 -681 -447 -73 -102 -157 -304 -173
-415 -3 -23 -8 -56 -11 -73 -8 -44 -7 -202 0 -265 22 -183 108 -384 227 -536
52 -65 162 -173 207 -201 15 -10 33 -24 41 -31 26 -25 237 -121 312 -141 99
-28 124 -31 254 -36 183 -6 336 26 500 104 308 148 527 428 595 762 24 115 28
263 11 374 -6 39 -11 74 -11 78 0 4 -23 -15 -50 -42 -192 -192 -502 -5 -421
254 33 104 153 184 257 172 24 -3 44 -4 44 -2 0 2 -24 32 -52 67 -172 206
-366 322 -643 384 -16 3 -95 8 -175 9 -112 3 -165 -1 -231 -15z m-354 -1225
c108 -43 150 -173 89 -272 -60 -96 -179 -116 -272 -47 -78 60 -91 186 -26 264
49 58 141 82 209 55z"/>
<path d="M705 3202 c6 -4 41 -43 80 -87 161 -185 340 -360 525 -515 95 -80
358 -275 430 -320 30 -19 57 -37 60 -40 5 -6 121 -75 215 -128 91 -51 259
-133 360 -177 97 -41 346 -130 393 -140 9 -2 45 -11 79 -20 35 -9 73 -18 85
-21 241 -47 249 -48 563 -48 295 0 359 4 509 35 514 106 971 322 1501 711 127
93 372 307 514 449 70 71 271 295 271 304 0 3 -187 5 -415 5 l-414 0 -58 -54
c-32 -29 -76 -68 -98 -87 -22 -19 -42 -37 -45 -40 -12 -13 -202 -160 -280
-216 -273 -195 -582 -356 -850 -442 -143 -45 -197 -58 -355 -86 -104 -18 -319
-25 -425 -14 -109 12 -159 18 -182 24 -13 2 -34 7 -48 9 -85 14 -338 92 -426
131 -423 188 -748 402 -1094 718 l-63 57 -421 0 c-232 0 -416 -4 -411 -8z"/>
</g>
</svg>
